{
    "asset": {
        "version": "2.0",
        "generator": "Open Asset Import Library (assimp v5.2.cf7d3637)"
    },
    "extensionsUsed": [
        "KHR_materials_volume",
        "KHR_materials_ior",
        "FB_ngon_encoding"
    ],
    "accessors": [
        {
            "bufferView": 0,
            "byteOffset": 0,
            "componentType": 5126,
            "count": 4788,
            "type": "VEC3",
            "max": [
                34.0,
                65.0,
                20.0
            ],
            "min": [
                -30.072999954223634,
                -0.0,
                0.0
            ]
        },
        {
            "bufferView": 1,
            "byteOffset": 0,
            "componentType": 5126,
            "count": 4788,
            "type": "VEC3",
            "max": [
                1.0,
                1.0,
                1.0
            ],
            "min": [
                -1.0,
                -1.0,
                -1.0
            ]
        },
        {
            "bufferView": 2,
            "byteOffset": 0,
            "componentType": 5126,
            "count": 4788,
            "type": "VEC2",
            "max": [
                0.983210027217865,
                0.9901999831199646
            ],
            "min": [
                0.016790000721812249,
                0.0098000168800354
            ]
        },
        {
            "bufferView": 3,
            "byteOffset": 0,
            "componentType": 5125,
            "count": 4788,
            "type": "SCALAR",
            "max": [
                4787
            ],
            "min": [
                0
            ]
        }
    ],
    "buffers": [
        {
            "byteLength": 172368,
            "uri": "result.bin"
        }
    ],
    "bufferViews": [
        {
            "buffer": 0,
            "byteOffset": 0,
            "byteLength": 57456,
            "target": 34962
        },
        {
            "buffer": 0,
            "byteOffset": 57456,
            "byteLength": 57456,
            "target": 34962
        },
        {
            "buffer": 0,
            "byteOffset": 114912,
            "byteLength": 38304,
            "target": 34962
        },
        {
            "buffer": 0,
            "byteOffset": 153216,
            "byteLength": 19152,
            "target": 34963
        }
    ],
    "materials": [
        {
            "name": "DefaultMaterial",
            "pbrMetallicRoughness": {
                "baseColorFactor": [
                    0.6000000238418579,
                    0.6000000238418579,
                    0.6000000238418579,
                    1.0
                ],
                "metallicFactor": 0.0
            },
            "extensions": {
                "KHR_materials_ior": {
                    "ior": 1.0
                }
            }
        },
        {
            "name": "Plastic Textured",
            "pbrMetallicRoughness": {
                "baseColorFactor": [
                    0.9879999756813049,
                    0.0,
                    0.0,
                    1.0
                ],
                "metallicFactor": 0.0
            },
            "extensions": {
                "KHR_materials_ior": {
                    "ior": 1.0
                }
            }
        }
    ],
    "meshes": [
        {
            "name": "group_0_15277357",
            "primitives": [
                {
                    "mode": 4,
                    "material": 1,
                    "indices": 3,
                    "attributes": {
                        "POSITION": 0,
                        "NORMAL": 1,
                        "TEXCOORD_0": 2
                    }
                }
            ]
        }
    ],
    "nodes": [
        {
            "name": "Neat Hango-Allis.obj",
            "children": [
                1,
                2
            ]
        },
        {
            "name": "000_group_0_15277357"
        },
        {
            "name": "group_0_15277357",
            "mesh": 0
        }
    ],
    "scenes": [
        {
            "nodes": [
                0
            ]
        }
    ],
    "scene": 0
}